<?xml version="1.0" standalone="no"?><!DOCTYPE svg PUBLIC "-//W3C//DTD SVG 1.1//EN" "http://www.w3.org/Graphics/SVG/1.1/DTD/svg11.dtd"><svg t="1637485175900" class="icon" viewBox="0 0 1024 1024" version="1.1" xmlns="http://www.w3.org/2000/svg" p-id="1415" xmlns:xlink="http://www.w3.org/1999/xlink" width="200" height="200"><defs><style type="text/css"></style></defs><path d="M674.3 515.5H230.4c-11.3 0-20.4 9.1-20.4 20.4s9.1 20.4 20.4 20.4h443.9c11.3 0 20.4-9.1 20.4-20.4s-9.1-20.4-20.4-20.4zM674.3 737.4H230.4c-11.3 0-20.4 9.1-20.4 20.4s9.1 20.4 20.4 20.4h443.9c11.3 0 20.4-9.1 20.4-20.4s-9.1-20.4-20.4-20.4zM674.3 626.4H230.4c-11.3 0-20.4 9.1-20.4 20.4 0 11.3 9.1 20.4 20.4 20.4h443.9c11.3 0 20.4-9.1 20.4-20.4 0-11.2-9.1-20.4-20.4-20.4z" fill="#ACBEC9" p-id="1416"></path><path d="M674.3 254.4H462.8c-11.3 0-20.4 9.1-20.4 20.4 0 11.3 9.1 20.4 20.4 20.4h211.5c11.3 0 20.4-9.1 20.4-20.4 0-11.3-9.1-20.4-20.4-20.4zM674.3 387.8H462.8c-11.3 0-20.4 9.1-20.4 20.4 0 11.3 9.1 20.4 20.4 20.4h211.5c11.3 0 20.4-9.1 20.4-20.4 0-11.2-9.1-20.4-20.4-20.4z" fill="#EB5F9D" p-id="1417"></path><path d="M835.3 312.2h-27.6V187.6c0-39.5-32.2-71.7-71.7-71.7H168.7c-39.5 0-71.7 32.2-71.7 71.7v648.7c0 39.5 32.2 71.7 71.7 71.7H835.3c50.6 0 91.7-41.2 91.7-91.7V403.9c0-50.6-41.2-91.7-91.7-91.7zM151.4 836.4V187.6c0-9.6 7.8-17.3 17.3-17.3H736c9.6 0 17.3 7.8 17.3 17.3v666H168.7c-9.5 0.1-17.3-7.7-17.3-17.2z m721.2-20.1c0 20.6-16.8 37.3-37.3 37.3h-27.6v-487h27.6c20.6 0 37.3 16.8 37.3 37.3v412.4z" fill="#ACBEC9" p-id="1418"></path><path d="M230.4 435.4h147c11.3 0 20.4-9.1 20.4-20.4V268c0-11.3-9.1-20.4-20.4-20.4h-147c-11.3 0-20.4 9.1-20.4 20.4v147c0 11.3 9.1 20.4 20.4 20.4z m20.4-147H357v106.2H250.8V288.4z" fill="#EB5F9D" p-id="1419"></path></svg>