<?xml version="1.0" standalone="no"?><!DOCTYPE svg PUBLIC "-//W3C//DTD SVG 1.1//EN" "http://www.w3.org/Graphics/SVG/1.1/DTD/svg11.dtd"><svg t="1637485095259" class="icon" viewBox="0 0 1024 1024" version="1.1" xmlns="http://www.w3.org/2000/svg" p-id="828" xmlns:xlink="http://www.w3.org/1999/xlink" width="200" height="200"><defs><style type="text/css"></style></defs><path d="M376.0128 668.19413333l6.5536 3.2768c6.00746667 2.73066667 15.83786667 2.73066667 22.39146667 2.73066667h393.76213333c44.2368 0 86.28906667-30.58346667 100.48853333-72.63573333l66.62826667-222.8224c10.37653333-30.58346667 3.82293333-65.536-17.47626667-93.3888-20.75306667-27.8528-48.05973333-41.50613333-83.01226666-41.50613334H360.72106667c-21.2992 0-39.3216 7.64586667-52.4288 14.19946667l-9.28426667 4.36906667-24.576-110.31893334C268.42453333 113.32266667 232.92586667 84.92373333 189.78133333 84.92373333H78.37013333c-18.0224 0-29.4912 11.4688-29.4912 29.4912 0 18.0224 11.4688 29.4912 29.4912 29.4912H189.78133333c10.92266667 0 20.75306667 9.8304 25.66826667 19.11466667l0.54613333 2.18453333 74.27413334 360.448 14.7456 66.62826667c3.2768 13.65333333 10.37653333 27.8528 18.0224 42.5984l1.6384 3.2768-1.6384 3.82293333-26.2144 51.88266667c-12.56106667 25.12213333-11.4688 55.7056 3.2768 81.92 14.19946667 20.75306667 34.4064 33.31413333 60.6208 37.13706667-8.192 14.19946667-13.1072 31.1296-13.1072 48.60586666 0 54.0672 44.2368 98.304 98.304 98.304s98.304-44.2368 98.304-98.304c0-17.47626667-4.9152-34.4064-13.1072-48.60586666h155.10186666c-8.192 14.19946667-13.1072 31.1296-13.1072 48.60586666 0 54.0672 44.2368 98.304 98.304 98.304s98.304-44.2368 98.304-98.304c0-17.47626667-4.9152-34.4064-13.1072-48.60586666h38.77546667c18.0224 0 29.4912-11.4688 29.4912-29.4912 0-18.0224-11.4688-29.4912-29.4912-29.4912H372.18986667c-15.29173333 0-31.67573333-16.93013333-21.84533334-37.6832l25.66826667-48.05973334zM446.464 898.6624c-20.75306667 0-38.22933333-16.93013333-38.22933333-38.22933333 0-20.75306667 16.93013333-38.22933333 38.22933333-38.22933334 20.75306667 0 38.22933333 16.93013333 38.22933333 38.22933334s-17.47626667 38.22933333-38.22933333 38.22933333z m324.94933333 0c-20.75306667 0-38.22933333-16.93013333-38.22933333-38.22933333 0-20.75306667 16.93013333-38.22933333 38.22933333-38.22933334 20.75306667 0 38.22933333 16.93013333 38.22933334 38.22933334s-17.47626667 38.22933333-38.22933334 38.22933333zM315.93813333 355.25973333c0-15.29173333 6.00746667-28.39893333 8.192-33.31413333l1.6384-2.18453333c4.9152-4.9152 19.11466667-16.93013333 35.49866667-16.93013334h505.17333333c15.83786667 0 28.39893333 6.5536 36.0448 18.56853334 8.73813333 13.1072 8.73813333 26.2144 8.73813334 37.6832l-0.54613334 2.18453333-66.62826666 222.8224c-4.36906667 18.56853333-22.9376 31.67573333-44.78293334 31.67573333H405.504c-22.9376 0-40.41386667-14.19946667-44.78293333-36.0448l-44.78293334-224.4608z" fill="#ACBEC9" p-id="829"></path><path d="M420.2496 454.10986667h387.20853333c13.1072 0 23.48373333-10.37653333 23.48373334-23.48373334s-10.37653333-23.48373333-23.48373334-23.48373333H420.2496c-13.1072 0-23.48373333 10.37653333-23.48373333 23.48373333s10.37653333 23.48373333 23.48373333 23.48373334zM777.96693333 511.45386667H432.26453333c-13.1072 0-23.48373333 10.37653333-23.48373333 23.48373333s10.37653333 23.48373333 23.48373333 23.48373333h346.24853334c13.1072 0 23.48373333-10.37653333 23.48373333-23.48373333s-10.92266667-23.48373333-24.02986667-23.48373333z" fill="#EB5F9D" p-id="830"></path></svg>