<?xml version="1.0" standalone="no"?><!DOCTYPE svg PUBLIC "-//W3C//DTD SVG 1.1//EN" "http://www.w3.org/Graphics/SVG/1.1/DTD/svg11.dtd"><svg t="1637485157885" class="icon" viewBox="0 0 1024 1024" version="1.1" xmlns="http://www.w3.org/2000/svg" p-id="1266" xmlns:xlink="http://www.w3.org/1999/xlink" width="200" height="200"><defs><style type="text/css"></style></defs><path d="M912.20650667 877.25397333H111.79349333c-39.61287111 0-72.23523555-32.62236445-72.23523555-72.23523555V218.98126222c0-39.61287111 32.62236445-72.23523555 72.23523555-72.23523555h799.83047112c39.61287111 0 72.23523555 32.62236445 72.23523555 72.23523555v586.03747556c0.58254222 39.61287111-32.03982222 72.23523555-71.65269333 72.23523555zM111.79349333 205.58279111c-7.57304889 0-13.39847111 5.82542222-13.39847111 13.39847111v586.03747556c0 7.57304889 5.82542222 13.39847111 13.39847111 13.39847111h799.83047112c7.57304889 0 13.39847111-5.82542222 13.3984711-13.39847111V218.98126222c0-7.57304889-5.82542222-13.39847111-13.3984711-13.39847111H111.79349333z" fill="#ACBEC9" p-id="1267"></path><path d="M411.22019555 590.6432c-85.63370667 0-154.95623111-69.32252445-154.9562311-154.95623111 0-85.63370667 69.32252445-154.95623111 154.9562311-154.95623111 85.63370667 0 154.95623111 69.32252445 154.95623112 154.95623111 0 85.63370667-69.32252445 154.95623111-154.95623112 154.95623111z m0-258.06620445c-57.08913778 0-103.10997333 46.60337778-103.10997333 103.10997334s46.60337778 103.10997333 103.10997333 103.10997333 103.10997333-46.60337778 103.10997334-103.10997333-46.02083555-103.10997333-103.10997334-103.10997334z" fill="#EB5F9D" p-id="1268"></path><path d="M615.10997333 764.24078222c-11.06830222 0-21.55406222-7.57304889-25.04931555-18.64135111-22.13660445-80.39082667-95.53692445-136.89742222-178.84046223-136.89742222s-156.70385778 56.50659555-178.84046222 136.89742222c-3.49525333 13.98101333-18.05880889 21.55406222-31.45728 18.05880889-13.98101333-3.49525333-21.55406222-18.05880889-18.05880888-31.45728 28.54456889-103.10997333 122.33386667-174.76266667 228.3565511-174.76266667s199.81198222 71.65269333 228.35655112 174.76266667c3.49525333 13.98101333-4.07779555 27.96202667-18.05880889 31.45728-1.74762667 0.58254222-4.07779555 0.58254222-6.40796445 0.58254222z" fill="#EB5F9D" p-id="1269"></path><path d="M599.96387555 580.15744c-13.98101333 0-25.63185778-11.65084445-25.63185777-25.63185778s11.65084445-25.63185778 25.63185777-25.63185777c57.08913778 0 103.10997333-46.60337778 103.10997334-103.10997334s-46.60337778-103.10997333-103.10997334-103.10997333c-13.98101333 0-25.63185778-11.65084445-25.63185777-25.63185778 0-13.98101333 11.65084445-25.63185778 25.63185777-25.63185778 85.63370667 0 154.95623111 69.32252445 154.95623112 154.95623111 0 84.46862222-69.90506667 153.79114667-154.95623112 153.79114667z" fill="#ACBEC9" p-id="1270"></path><path d="M803.27111111 736.27875555c-11.06830222 0-21.55406222-7.57304889-25.04931556-18.6413511-22.13660445-80.39082667-95.53692445-136.89742222-178.84046222-136.89742223-13.98101333 0-25.63185778-11.65084445-25.63185778-25.63185777s11.65084445-25.63185778 25.63185778-25.63185778c106.02268445 0 199.81198222 71.65269333 228.35655112 174.76266666 3.49525333 13.98101333-4.07779555 27.96202667-18.0588089 31.45728-1.74762667 0-4.07779555 0.58254222-6.40796444 0.58254222z" fill="#ACBEC9" p-id="1271"></path><path d="M411.22019555 512c-30.87473778 0-46.60337778-18.05880889-51.26371555-29.12711111-4.07779555-9.32067555 0.58254222-20.38897778 9.90321778-23.88423111 9.32067555-4.07779555 19.80643555 0.58254222 23.88423111 9.32067555 0.58254222 1.16508445 4.66033778 6.99050667 17.47626666 6.99050667 12.23338667 0 15.14609778-5.24288 15.72864-6.40796445 3.49525333-9.32067555 13.39847111-14.56355555 23.3016889-11.06830222 9.32067555 3.49525333 14.56355555 13.98101333 11.06830222 23.88423112-3.49525333 11.65084445-18.64135111 30.29219555-50.09863112 30.29219555z" fill="#EB5F9D" p-id="1272"></path></svg>